<?xml version="1.0" ?><!DOCTYPE svg  PUBLIC '-//W3C//DTD SVG 1.1//EN'  'http://www.w3.org/Graphics/SVG/1.1/DTD/svg11.dtd'><svg enable-background="new 0 0 256 256" height="256px" id="Layer_1" version="1.1" viewBox="0 0 256 256" width="256px" xml:space="preserve" xmlns="http://www.w3.org/2000/svg" xmlns:xlink="http://www.w3.org/1999/xlink"><g><g><path d="M94.089,128.494c3.428,2.809,3.922,7.859,1.103,11.277s-7.884,3.91-11.312,1.099L57.31,119.108     c-3.428-2.81-3.922-7.859-1.103-11.274c0.368-0.448,0.774-0.843,1.209-1.188l26.464-21.673c3.427-2.812,8.493-2.318,11.312,1.099     c2.819,3.416,2.325,8.465-1.103,11.276L75.074,112.92L94.089,128.494L94.089,128.494z M172.119,140.869     c-3.429,2.812-8.493,2.319-11.312-1.099c-2.82-3.418-2.326-8.468,1.103-11.277l19.014-15.573L161.91,97.349     c-3.429-2.811-3.923-7.86-1.103-11.276c2.818-3.417,7.883-3.911,11.312-1.099l26.464,21.673c0.436,0.345,0.841,0.74,1.21,1.188     c2.817,3.416,2.325,8.465-1.104,11.274L172.119,140.869L172.119,140.869z M138.682,76.003c1.41-3.005,4.996-4.301,8.012-2.897     c3.015,1.406,4.316,4.98,2.906,7.986l-32.284,68.747c-1.408,3.005-4.997,4.301-8.011,2.897c-3.014-1.406-4.315-4.98-2.906-7.985     L138.682,76.003L138.682,76.003z" fill="#2B78C2"/><path clip-rule="evenodd" d="M222.458,44.063H33.542c-0.351,0-0.667,0.14-0.894,0.366     c-0.213,0.212-0.346,0.518-0.346,0.863v135.259c0,0.346,0.133,0.649,0.347,0.863c0.227,0.226,0.543,0.367,0.894,0.367h188.916     c0.351,0,0.667-0.142,0.894-0.367c0.213-0.212,0.345-0.518,0.345-0.863V45.292c0-0.347-0.132-0.651-0.345-0.863     C223.125,44.203,222.809,44.063,222.458,44.063L222.458,44.063z M126.233,223.965l-113.781-0.012     C7.17,223.953,0,220.023,0,214.499c0-3.67,7.036-11.577,9.457-14.715l5.671-7.344c1.608-2.082,4.138-3.862,6.976-5.094     c-1.206-1.997-1.901-4.322-1.901-6.796V45.292c0-3.645,1.509-6.971,3.939-9.392C26.556,33.496,29.884,32,33.542,32h188.916     c3.657,0,6.985,1.495,9.401,3.901c2.431,2.419,3.937,5.744,3.937,9.392v135.259c0,2.406-0.655,4.671-1.8,6.629     c2.557,1.205,4.79,2.817,6.253,4.668l-0.016,0.01l5.646,7.137c0.11,0.117,0.215,0.239,0.315,0.367l3.937,4.977     c2.383,3.013,5.869,5.914,5.869,10.041c0,5.746-7.394,9.621-12.809,9.621v-0.023L126.233,223.965L126.233,223.965z      M25.953,205.117c-2.352,0-3.045-1.71-1.945-3.891c0.556-1.104,3.477-6.118,4.536-6.824c1.051-0.703,2.246-1.365,3.325-1.365     h192.066c1.058,0,2.255,0.662,3.305,1.365c1.06,0.708,4.061,5.72,4.616,6.824c1.009,1.998,0.384,3.854-2.009,3.854l-65.622,0.044     l0.754,4.957c0.179,1.184-0.819,2.078-2.005,2.078l-68.841-0.053c-1.227-0.002-2.122-0.82-2.003-2.025l0.49-4.985L25.953,205.117     L25.953,205.117z" fill="#3B4552" fill-rule="evenodd"/></g></g></svg>